<svg version="1.1" xmlns="http://www.w3.org/2000/svg" xmlns:xlink="http://www.w3.org/1999/xlink" width="484" height="388"><defs/><g><g transform="translate(-38,-62) scale(1,1)"><rect fill="#C0C0C0" stroke="none" x="55" y="87" width="72" height="46" opacity="0.2"/></g><g transform="translate(-38,-62) scale(1,1)"><rect fill="#ffffff" stroke="none" x="48" y="80" width="72" height="46"/></g><g transform="translate(-38,-62) scale(1,1)"><path fill="none" stroke="#000000" d="M 48 80 L 120 80 L 120 126 L 48 126 L 48 80 Z Z" stroke-miterlimit="10"/></g><g transform="translate(-38,-62) scale(1,1)"><path fill="none" stroke="#000000" d="M 48 106 L 120 106" stroke-miterlimit="10"/></g><g transform="translate(-38,-62) scale(1,1)"><path fill="none" stroke="#000000" d="M 48 116 L 120 116" stroke-miterlimit="10"/></g><g transform="translate(-38,-62) scale(1,1)"><g><path fill="none" stroke="none"/><text fill="#000000" stroke="none" font-family="Arial" font-size="14px" font-style="normal" font-weight="bold" text-decoration="none" x="66.103515625" y="100.5">Client</text></g></g><g transform="translate(-38,-62) scale(1,1)"><rect fill="#C0C0C0" stroke="none" x="247" y="79" width="101.96630859375" height="61" opacity="0.2"/></g><g transform="translate(-38,-62) scale(1,1)"><rect fill="#ffffff" stroke="none" x="240" y="72" width="101.96630859375" height="61"/></g><g transform="translate(-38,-62) scale(1,1)"><path fill="none" stroke="#000000" d="M 240 72 L 341.96630859375 72 L 341.96630859375 133 L 240 133 L 240 72 Z Z" stroke-miterlimit="10"/></g><g transform="translate(-38,-62) scale(1,1)"><path fill="none" stroke="#000000" d="M 240 98 L 341.96630859375 98" stroke-miterlimit="10"/></g><g transform="translate(-38,-62) scale(1,1)"><path fill="none" stroke="#000000" d="M 240 108 L 341.96630859375 108" stroke-miterlimit="10"/></g><g transform="translate(-38,-62) scale(1,1)"><g><path fill="none" stroke="none"/><text fill="#000000" stroke="none" font-family="Arial" font-size="14px" font-style="normal" font-weight="bold" text-decoration="none" x="271.528076171875" y="92.5">Target</text></g></g><g transform="translate(-38,-62) scale(1,1)"><g><path fill="none" stroke="none"/><text fill="#000000" stroke="none" font-family="Arial" font-size="14px" font-style="normal" font-weight="normal" text-decoration="none" x="245" y="126.5">+Request()</text></g></g><g transform="translate(-38,-62) scale(1,1)"><rect fill="#C0C0C0" stroke="none" x="247" y="223" width="95.7685546875" height="59" opacity="0.2"/></g><g transform="translate(-38,-62) scale(1,1)"><rect fill="#ffffff" stroke="none" x="240" y="216" width="95.7685546875" height="59"/></g><g transform="translate(-38,-62) scale(1,1)"><path fill="none" stroke="#000000" d="M 240 216 L 335.7685546875 216 L 335.7685546875 275 L 240 275 L 240 216 Z Z" stroke-miterlimit="10"/></g><g transform="translate(-38,-62) scale(1,1)"><path fill="none" stroke="#000000" d="M 240 242 L 335.7685546875 242" stroke-miterlimit="10"/></g><g transform="translate(-38,-62) scale(1,1)"><path fill="none" stroke="#000000" d="M 240 252 L 335.7685546875 252" stroke-miterlimit="10"/></g><g transform="translate(-38,-62) scale(1,1)"><g><path fill="none" stroke="none"/><text fill="#000000" stroke="none" font-family="Arial" font-size="14px" font-style="normal" font-weight="bold" text-decoration="none" x="263.3671875" y="236.5">Adapter</text></g></g><g transform="translate(-38,-62) scale(1,1)"><g><path fill="none" stroke="none"/><text fill="#000000" stroke="none" font-family="Arial" font-size="14px" font-style="normal" font-weight="normal" text-decoration="none" x="245" y="270.5">+Request()</text></g></g><g transform="translate(-38,-62) scale(1,1)"><rect fill="#C0C0C0" stroke="none" x="447" y="231" width="72" height="46" opacity="0.2"/></g><g transform="translate(-38,-62) scale(1,1)"><rect fill="#ffffff" stroke="none" x="440" y="224" width="72" height="46"/></g><g transform="translate(-38,-62) scale(1,1)"><path fill="none" stroke="#000000" d="M 440 224 L 512 224 L 512 270 L 440 270 L 440 224 Z Z" stroke-miterlimit="10"/></g><g transform="translate(-38,-62) scale(1,1)"><path fill="none" stroke="#000000" d="M 440 250 L 512 250" stroke-miterlimit="10"/></g><g transform="translate(-38,-62) scale(1,1)"><path fill="none" stroke="#000000" d="M 440 260 L 512 260" stroke-miterlimit="10"/></g><g transform="translate(-38,-62) scale(1,1)"><g><path fill="none" stroke="none"/><text fill="#000000" stroke="none" font-family="Arial" font-size="14px" font-style="normal" font-weight="bold" text-decoration="none" x="449.9208984375" y="244.5">Adaptee</text></g></g><g transform="translate(-38,-62) scale(1,1)"><path fill="none" stroke="#000000" d="M 121 103 L 239 102" stroke-miterlimit="10"/></g><g transform="translate(-38,-62) scale(1,1)"><path fill="none" stroke="#000000" d="M 228.8733626547987 106.29548787436006 L 239 102 L 228.80201745812664 97.87675466705582" stroke-miterlimit="10"/></g><g transform="translate(-38,-62) scale(1,1)"><g><path fill="none" stroke="none"/><text fill="#000000" stroke="none" font-family="Arial" font-size="14px" font-style="normal" font-weight="normal" text-decoration="none" x="158.05517578125" y="93.5">+target</text></g></g><g transform="translate(-38,-62) scale(1,1)"><path fill="none" stroke="#000000" d="M 288 215 L 289 134" stroke-miterlimit="10"/></g><g transform="translate(-38,-62) scale(1,1)"><path fill="#FFFFFF" stroke="none" d="M 297.16748286567116 154.42773173014976 L 289 134 L 280.33069488889254 154.21987015018954"/></g><g transform="translate(-38,-62) scale(1,1)"><path fill="none" stroke="#000000" d="M 297.16748286567116 154.42773173014976 L 289 134 L 280.33069488889254 154.21987015018954 L 297.16748286567116 154.42773173014976" stroke-miterlimit="10"/></g><g transform="translate(-38,-62) scale(1,1)"><path fill="none" stroke="#000000" d="M 337 246 L 439 247" stroke-miterlimit="10"/></g><g transform="translate(-38,-62) scale(1,1)"><path fill="none" stroke="#000000" d="M 428.79654571075787 251.1096861884268 L 439 247 L 428.87908130816464 242.6910552529352" stroke-miterlimit="10"/></g><g transform="translate(-38,-62) scale(1,1)"><g><path fill="none" stroke="none"/><text fill="#000000" stroke="none" font-family="Arial" font-size="14px" font-style="normal" font-weight="normal" text-decoration="none" x="358.5" y="237.5">+adaptee</text></g></g><g transform="translate(-38,-62) scale(1,1)"><path fill="#ffffff" stroke="none" d="M 184 352 L 373 352 L 383 362 L 383 439 L 184 439 L 184 352"/></g><g transform="translate(-38,-62) scale(1,1)"><path fill="none" stroke="#000000" d="M 184 352 L 373 352 L 383 362 L 383 439 L 184 439 L 184 352 L 184 352" stroke-miterlimit="10"/></g><g transform="translate(-38,-62) scale(1,1)"><path fill="none" stroke="#000000" d="M 373 352 L 373 362 L 383 362 L 373 352" stroke-miterlimit="10"/></g><g transform="translate(-38,-62) scale(1,1)"><g><path fill="none" stroke="none"/><text fill="#000000" stroke="none" font-family="Arial" font-size="14px" font-style="normal" font-weight="normal" text-decoration="none" x="189" y="371">adaptee.SpecificRequest()</text></g></g><g transform="translate(-38,-62) scale(1,1)"><path fill="none" stroke="#000000" d="M 285 351 L 286 276" stroke-miterlimit="10" stroke-dasharray="3"/></g></g></svg>