<svg version="1.1" xmlns="http://www.w3.org/2000/svg" xmlns:xlink="http://www.w3.org/1999/xlink" width="631.806640625" height="353"><defs/><g><g transform="translate(-46,-86) scale(1,1)"><rect fill="#C0C0C0" stroke="none" x="103" y="103" width="50.919921875" height="45" opacity="0.2"/></g><g transform="translate(-46,-86) scale(1,1)"><rect fill="#ffffff" stroke="none" x="96" y="96" width="50.919921875" height="45"/></g><g transform="translate(-46,-86) scale(1,1)"><path fill="none" stroke="#000000" d="M 96 96 L 146.919921875 96 L 146.919921875 141 L 96 141 L 96 96 Z Z" stroke-miterlimit="10"/></g><g transform="translate(-46,-86) scale(1,1)"><path fill="none" stroke="#000000" d="M 96 122 L 146.919921875 122" stroke-miterlimit="10"/></g><g transform="translate(-46,-86) scale(1,1)"><path fill="none" stroke="#000000" d="M 96 132 L 146.919921875 132" stroke-miterlimit="10"/></g><g transform="translate(-46,-86) scale(1,1)"><g><path fill="none" stroke="none"/><text fill="#000000" stroke="none" font-family="Arial" font-size="14px" font-style="normal" font-weight="bold" text-decoration="none" x="103.5634765625" y="116.5">Client</text></g></g><g transform="translate(-46,-86) scale(1,1)"><rect fill="#C0C0C0" stroke="none" x="87" y="199" width="89.57080078125" height="59" opacity="0.2"/></g><g transform="translate(-46,-86) scale(1,1)"><rect fill="#ffffff" stroke="none" x="80" y="192" width="89.57080078125" height="59"/></g><g transform="translate(-46,-86) scale(1,1)"><path fill="none" stroke="#000000" d="M 80 192 L 169.57080078125 192 L 169.57080078125 251 L 80 251 L 80 192 Z Z" stroke-miterlimit="10"/></g><g transform="translate(-46,-86) scale(1,1)"><path fill="none" stroke="#000000" d="M 80 218 L 169.57080078125 218" stroke-miterlimit="10"/></g><g transform="translate(-46,-86) scale(1,1)"><path fill="none" stroke="#000000" d="M 80 228 L 169.57080078125 228" stroke-miterlimit="10"/></g><g transform="translate(-46,-86) scale(1,1)"><g><path fill="none" stroke="none"/><text fill="#000000" stroke="none" font-family="Arial" font-size="14px" font-style="italic" font-weight="bold" text-decoration="none" x="92.285400390625" y="212.5">Abstraction</text></g></g><g transform="translate(-46,-86) scale(1,1)"><g><path fill="none" stroke="none"/><text fill="#000000" stroke="none" font-family="Arial" font-size="14px" font-style="normal" font-weight="normal" text-decoration="none" x="85" y="246.5">+Operation()</text></g></g><g transform="translate(-46,-86) scale(1,1)"><rect fill="#C0C0C0" stroke="none" x="63" y="391" width="138.1240234375" height="45" opacity="0.2"/></g><g transform="translate(-46,-86) scale(1,1)"><rect fill="#ffffff" stroke="none" x="56" y="384" width="138.1240234375" height="45"/></g><g transform="translate(-46,-86) scale(1,1)"><path fill="none" stroke="#000000" d="M 56 384 L 194.1240234375 384 L 194.1240234375 429 L 56 429 L 56 384 Z Z" stroke-miterlimit="10"/></g><g transform="translate(-46,-86) scale(1,1)"><path fill="none" stroke="#000000" d="M 56 410 L 194.1240234375 410" stroke-miterlimit="10"/></g><g transform="translate(-46,-86) scale(1,1)"><path fill="none" stroke="#000000" d="M 56 420 L 194.1240234375 420" stroke-miterlimit="10"/></g><g transform="translate(-46,-86) scale(1,1)"><g><path fill="none" stroke="none"/><text fill="#000000" stroke="none" font-family="Arial" font-size="14px" font-style="normal" font-weight="bold" text-decoration="none" x="65.91748046875" y="404.5">RefinedAbstraction</text></g></g><g transform="translate(-46,-86) scale(1,1)"><rect fill="#C0C0C0" stroke="none" x="423" y="199" width="111.3203125" height="59" opacity="0.2"/></g><g transform="translate(-46,-86) scale(1,1)"><rect fill="#ffffff" stroke="none" x="416" y="192" width="111.3203125" height="59"/></g><g transform="translate(-46,-86) scale(1,1)"><path fill="none" stroke="#000000" d="M 416 192 L 527.3203125 192 L 527.3203125 251 L 416 251 L 416 192 Z Z" stroke-miterlimit="10"/></g><g transform="translate(-46,-86) scale(1,1)"><path fill="none" stroke="#000000" d="M 416 218 L 527.3203125 218" stroke-miterlimit="10"/></g><g transform="translate(-46,-86) scale(1,1)"><path fill="none" stroke="#000000" d="M 416 228 L 527.3203125 228" stroke-miterlimit="10"/></g><g transform="translate(-46,-86) scale(1,1)"><g><path fill="none" stroke="none"/><text fill="#000000" stroke="none" font-family="Arial" font-size="14px" font-style="italic" font-weight="bold" text-decoration="none" x="436.16015625" y="212.5">Implementor</text></g></g><g transform="translate(-46,-86) scale(1,1)"><g><path fill="none" stroke="none"/><text fill="#000000" stroke="none" font-family="Arial" font-size="14px" font-style="normal" font-weight="normal" text-decoration="none" x="421" y="246.5">+OperationImp()</text></g></g><g transform="translate(-46,-86) scale(1,1)"><rect fill="#C0C0C0" stroke="none" x="287" y="375" width="163.806640625" height="59" opacity="0.2"/></g><g transform="translate(-46,-86) scale(1,1)"><rect fill="#ffffff" stroke="none" x="280" y="368" width="163.806640625" height="59"/></g><g transform="translate(-46,-86) scale(1,1)"><path fill="none" stroke="#000000" d="M 280 368 L 443.806640625 368 L 443.806640625 427 L 280 427 L 280 368 Z Z" stroke-miterlimit="10"/></g><g transform="translate(-46,-86) scale(1,1)"><path fill="none" stroke="#000000" d="M 280 394 L 443.806640625 394" stroke-miterlimit="10"/></g><g transform="translate(-46,-86) scale(1,1)"><path fill="none" stroke="#000000" d="M 280 404 L 443.806640625 404" stroke-miterlimit="10"/></g><g transform="translate(-46,-86) scale(1,1)"><g><path fill="none" stroke="none"/><text fill="#000000" stroke="none" font-family="Arial" font-size="14px" font-style="normal" font-weight="bold" text-decoration="none" x="289.927734375" y="388.5">ConcreteImplementorA</text></g></g><g transform="translate(-46,-86) scale(1,1)"><g><path fill="none" stroke="none"/><text fill="#000000" stroke="none" font-family="Arial" font-size="14px" font-style="normal" font-weight="normal" text-decoration="none" x="285" y="422.5">+OperationImp()</text></g></g><g transform="translate(-46,-86) scale(1,1)"><rect fill="#C0C0C0" stroke="none" x="511" y="375" width="163.806640625" height="59" opacity="0.2"/></g><g transform="translate(-46,-86) scale(1,1)"><rect fill="#ffffff" stroke="none" x="504" y="368" width="163.806640625" height="59"/></g><g transform="translate(-46,-86) scale(1,1)"><path fill="none" stroke="#000000" d="M 504 368 L 667.806640625 368 L 667.806640625 427 L 504 427 L 504 368 Z Z" stroke-miterlimit="10"/></g><g transform="translate(-46,-86) scale(1,1)"><path fill="none" stroke="#000000" d="M 504 394 L 667.806640625 394" stroke-miterlimit="10"/></g><g transform="translate(-46,-86) scale(1,1)"><path fill="none" stroke="#000000" d="M 504 404 L 667.806640625 404" stroke-miterlimit="10"/></g><g transform="translate(-46,-86) scale(1,1)"><g><path fill="none" stroke="none"/><text fill="#000000" stroke="none" font-family="Arial" font-size="14px" font-style="normal" font-weight="bold" text-decoration="none" x="513.927734375" y="388.5">ConcreteImplementorB</text></g></g><g transform="translate(-46,-86) scale(1,1)"><g><path fill="none" stroke="none"/><text fill="#000000" stroke="none" font-family="Arial" font-size="14px" font-style="normal" font-weight="normal" text-decoration="none" x="509" y="422.5">+OperationImp()</text></g></g><g transform="translate(-46,-86) scale(1,1)"><path fill="none" stroke="#000000" d="M 415 221 L 171 221" stroke-miterlimit="10"/></g><g transform="translate(-46,-86) scale(1,1)"><path fill="#FFFFFF" stroke="none" d="M 181.16267485762415 216.790482243984 L 171 221 L 181.16267485762415 225.209517756016 L 193 221"/></g><g transform="translate(-46,-86) scale(1,1)"><path fill="none" stroke="#000000" d="M 181.16267485762415 216.790482243984 L 171 221 L 181.16267485762415 225.209517756016 L 193 221 L 181.16267485762415 216.790482243984" stroke-miterlimit="10"/></g><g transform="translate(-46,-86) scale(1,1)"><g><path fill="none" stroke="none"/><text fill="#000000" stroke="none" font-family="Arial" font-size="14px" font-style="normal" font-weight="normal" text-decoration="none" x="249.5" y="242.5">+implementor</text></g></g><g transform="translate(-46,-86) scale(1,1)"><path fill="none" stroke="#000000" d="M 125 383 L 124 252" stroke-miterlimit="10"/></g><g transform="translate(-46,-86) scale(1,1)"><path fill="#FFFFFF" stroke="none" d="M 132.57394104810936 272.26049197091584 L 124 252 L 115.73636059380162 272.389023119422"/></g><g transform="translate(-46,-86) scale(1,1)"><path fill="none" stroke="#000000" d="M 132.57394104810936 272.26049197091584 L 124 252 L 115.73636059380162 272.389023119422 L 132.57394104810936 272.26049197091584" stroke-miterlimit="10"/></g><g transform="translate(-46,-86) scale(1,1)"><path fill="none" stroke="#000000" d="M 360 368 L 360 288 L 448 288 L 448 251" stroke-miterlimit="10"/></g><g transform="translate(-46,-86) scale(1,1)"><path fill="#FFFFFF" stroke="none" d="M 456.419035512032 271.3253497152483 L 448 251 L 439.580964487968 271.3253497152483"/></g><g transform="translate(-46,-86) scale(1,1)"><path fill="none" stroke="#000000" d="M 456.419035512032 271.3253497152483 L 448 251 L 439.580964487968 271.3253497152483 L 456.419035512032 271.3253497152483" stroke-miterlimit="10"/></g><g transform="translate(-46,-86) scale(1,1)"><path fill="none" stroke="#000000" d="M 576 368 L 576 288 L 488 288 L 488 251" stroke-miterlimit="10"/></g><g transform="translate(-46,-86) scale(1,1)"><path fill="#FFFFFF" stroke="none" d="M 496.419035512032 271.3253497152483 L 488 251 L 479.580964487968 271.3253497152483"/></g><g transform="translate(-46,-86) scale(1,1)"><path fill="none" stroke="#000000" d="M 496.419035512032 271.3253497152483 L 488 251 L 479.580964487968 271.3253497152483 L 496.419035512032 271.3253497152483" stroke-miterlimit="10"/></g><g transform="translate(-46,-86) scale(1,1)"><path fill="none" stroke="#000000" d="M 122 142 L 123 191" stroke-miterlimit="10"/></g><g transform="translate(-46,-86) scale(1,1)"><path fill="none" stroke="#000000" d="M 118.58400023732071 180.9253314647073 L 123 191 L 127.0012830616035 180.7535501825791" stroke-miterlimit="10"/></g><g transform="translate(-46,-86) scale(1,1)"><path fill="#ffffff" stroke="none" d="M 144 264 L 326.2890625 264 L 336.2890625 274 L 336.2890625 327 L 144 327 L 144 264"/></g><g transform="translate(-46,-86) scale(1,1)"><path fill="none" stroke="#000000" d="M 144 264 L 326.2890625 264 L 336.2890625 274 L 336.2890625 327 L 144 327 L 144 264 L 144 264" stroke-miterlimit="10"/></g><g transform="translate(-46,-86) scale(1,1)"><path fill="none" stroke="#000000" d="M 326.2890625 264 L 326.2890625 274 L 336.2890625 274 L 326.2890625 264" stroke-miterlimit="10"/></g><g transform="translate(-46,-86) scale(1,1)"><g><path fill="none" stroke="none"/><text fill="#000000" stroke="none" font-family="Arial" font-size="14px" font-style="normal" font-weight="normal" text-decoration="none" x="149" y="283">implementor.OperationImp()</text></g></g><g transform="translate(-46,-86) scale(1,1)"><path fill="none" stroke="#000000" d="M 189 263 L 171 251" stroke-miterlimit="10" stroke-dasharray="3"/></g></g></svg>